<?xml version="1.0" standalone="no"?>
<!DOCTYPE svg PUBLIC "-//W3C//DTD SVG 20010904//EN"
 "http://www.w3.org/TR/2001/REC-SVG-20010904/DTD/svg10.dtd">
<svg version="1.0" xmlns="http://www.w3.org/2000/svg"
 width="500.000000pt" height="500.000000pt" viewBox="0 0 500.000000 500.000000"
 preserveAspectRatio="xMidYMid meet">
<metadata>
Created by potrace 1.14, written by Peter Selinger 2001-2017
</metadata>
<g transform="translate(0.000000,500.000000) scale(0.100000,-0.100000)"
fill="#000000" stroke="none">
<path d="M2338 4985 c-2 -2 -44 -6 -94 -10 -75 -5 -185 -26 -374 -71 -14 -3
-30 -7 -37 -8 -7 -1 -16 -5 -19 -9 -4 -4 -16 -7 -26 -7 -38 0 -298 -105 -424
-170 -107 -56 -286 -168 -337 -211 -7 -5 -37 -28 -67 -52 -121 -93 -292 -263
-380 -377 -19 -25 -38 -46 -42 -48 -5 -2 -8 -10 -8 -17 0 -7 -3 -15 -8 -17
-13 -5 -74 -88 -65 -88 4 0 3 -4 -3 -8 -35 -23 -254 -433 -254 -474 0 -8 -4
-18 -9 -23 -7 -8 -49 -133 -68 -200 -22 -82 -35 -136 -39 -160 -2 -16 -11 -59
-19 -95 -8 -36 -18 -94 -21 -130 -3 -36 -7 -83 -10 -105 -5 -52 -5 -328 0
-380 3 -22 7 -69 10 -105 3 -36 10 -90 16 -120 6 -30 13 -64 15 -75 23 -147
96 -371 178 -550 23 -49 44 -92 47 -95 3 -3 18 -30 33 -60 41 -81 63 -120 81
-139 9 -10 16 -22 16 -28 0 -6 3 -13 8 -15 4 -1 27 -33 52 -69 73 -106 151
-198 266 -313 64 -64 92 -90 199 -181 17 -14 48 -38 70 -53 22 -15 49 -35 59
-44 11 -10 25 -18 32 -18 7 0 14 -4 16 -8 4 -11 154 -102 168 -102 5 0 10 -4
10 -10 0 -5 9 -10 19 -10 11 0 21 -4 23 -8 4 -10 139 -75 243 -117 41 -17 122
-43 140 -45 6 -1 15 -5 20 -10 17 -13 280 -77 355 -86 14 -1 37 -5 52 -8 86
-19 466 -26 593 -12 66 8 85 10 153 20 42 6 93 16 137 27 22 5 51 12 65 15 14
3 44 12 68 20 23 7 47 14 52 14 5 0 21 5 37 12 15 6 33 12 38 13 57 13 340
139 350 156 4 5 11 7 16 4 5 -4 9 -1 9 4 0 6 3 10 8 9 14 -5 207 116 265 167
9 8 19 14 21 13 3 -2 15 6 28 17 13 11 34 28 47 37 107 75 329 303 431 443 28
39 57 77 63 85 74 89 277 486 293 573 1 4 3 9 4 12 1 3 3 8 5 13 1 4 5 16 9
27 18 46 26 74 45 144 11 40 20 76 19 80 -1 3 1 13 5 21 7 19 29 136 33 175 2
17 5 48 9 70 3 22 8 89 10 149 3 60 8 112 10 117 3 4 1 10 -5 14 -6 4 -7 11
-3 17 8 15 1 212 -12 298 -11 81 -15 108 -20 130 -3 14 -8 41 -11 60 -38 222
-157 539 -276 735 -10 17 -25 45 -35 63 -9 17 -20 32 -25 32 -4 0 -8 5 -8 11
0 9 -41 71 -114 173 -12 16 -30 39 -41 51 -11 11 -38 43 -60 70 -50 61 -229
239 -274 274 -19 14 -46 36 -59 48 -14 13 -29 20 -35 16 -5 -3 -7 -2 -4 3 3 5
-19 25 -48 44 -30 19 -54 38 -55 43 0 4 -5 7 -11 7 -6 0 -25 11 -43 25 -18 14
-38 25 -44 25 -6 0 -12 4 -14 9 -4 12 -277 152 -338 174 -25 9 -76 28 -115 42
-78 30 -75 29 -165 51 -36 9 -72 19 -80 22 -8 3 -22 7 -30 8 -8 1 -46 9 -85
18 -65 14 -95 19 -200 32 -46 5 -432 13 -437 9z"/>
</g>
</svg>
